<svg width="500" height="500" viewBox="0 0 500 500" fill="none" xmlns="http://www.w3.org/2000/svg">
<path fill-rule="evenodd" clip-rule="evenodd" d="M250 485C390.83 485 500 381.84 500 242.5C500 103.16 390.83 0 250 0C109.17 0 0 103.16 0 242.5C0 315.39 29.87 378.36 78.52 421.86C82.61 425.51 85.07 430.63 85.24 436.11L86.6 480.59C87.03 494.77 101.68 504 114.66 498.27L164.28 476.36C168.49 474.51 173.2 474.16 177.63 475.39C200.44 481.66 224.71 485 250 485ZM404.92 177.79L317.88 312.31V312.29C313.46 319.11 304.35 321.07 297.52 316.65L216.89 264.48C213.77 262.46 209.73 262.52 206.67 264.63L115.79 327.31C102.53 336.46 86.32 320.72 95.07 307.2L182.12 172.68C186.53 165.86 195.64 163.9 202.47 168.32L283.12 220.5C286.24 222.52 290.28 222.46 293.34 220.35L384.2 157.68C397.46 148.53 413.67 164.27 404.92 177.79Z" fill="#0866FF"/>
</svg>
