<svg width="994" height="529" viewBox="0 0 994 529" fill="none" xmlns="http://www.w3.org/2000/svg">
<path d="M229.9 417.35H136.3V80.52H0.0799561V0.039978H366.13V80.52H229.9V417.35Z" fill="black"/>
<path d="M346.66 526.95C346.66 526.95 383.53 439.42 385.92 434.4L394.86 415.62L268.47 113.96H365.35L439.27 314.27L512.9 113.96H605.31L467.3 443.04C455.77 470.86 430.5 528.92 430.5 528.92L346.66 526.95Z" fill="black"/>
<path d="M627.77 416.55H539.54L704.39 1.03998H792.62L627.77 416.55Z" fill="black"/>
<path d="M871.22 417.35H782.99V114.5H863.17L865.26 162.49C875.59 146.99 889.65 134.27 907.44 124.34C925.22 114.4 944.45 109.43 965.12 109.43C970.09 109.43 975.41 109.73 981.07 110.32C986.73 110.92 990.95 111.51 993.74 112.11V191.7C990.36 191.1 986.44 190.65 981.96 190.36C977.49 190.06 973.26 189.91 969.29 189.91C937.49 189.91 913.2 199.8 896.41 219.57C879.61 239.34 871.22 265.23 871.22 297.22V417.35Z" fill="black"/>
</svg>
